# Blender v2.78 (sub 0) OBJ File: 'full.blend'
# www.blender.org
mtllib full.mtl
o Plane
v -7.984329 0.097378 6.944540
v 6.914145 0.097378 6.944540
v -7.984329 0.097378 -7.953934
v 6.914145 0.097378 -7.953934
v -7.984329 0.097378 -0.504697
v -0.535092 0.097378 6.944540
v 6.914145 0.097378 -0.504697
v -0.535092 0.097378 -7.953934
v -0.535092 0.097378 -0.504697
v -7.984329 0.097378 3.219921
v 3.189526 0.097378 6.944540
v 6.914145 0.151245 -4.229316
v -4.259710 0.097378 -7.953934
v -7.984329 0.097378 -4.229316
v -4.259710 0.097378 6.944540
v 6.914145 0.097378 3.219921
v 3.189526 0.100484 -7.953934
v -0.535092 0.100484 -4.229316
v -0.535092 0.097378 3.219921
v -4.259710 0.097378 -0.504697
v 3.189526 1.852971 -0.504697
v 3.189526 0.097378 3.219921
v -4.259710 0.097378 3.219921
v -4.259710 0.097378 -4.229316
v 3.189526 7.473447 -4.217480
v -7.984329 0.097378 5.082231
v 5.051835 0.097378 6.944540
v 6.914145 0.097378 -6.091624
v -6.122020 0.097378 -7.953934
v -7.984329 0.097378 -2.367006
v -2.397401 0.097378 6.944540
v 6.914145 0.097378 1.357612
v 1.327217 0.097378 -7.953934
v -0.535092 0.097378 -6.091624
v -0.535092 0.097378 1.357612
v -6.122020 0.097378 -0.504697
v 1.327217 0.097378 -0.504697
v -7.984329 0.097378 1.357612
v 1.327217 0.097378 6.944540
v 6.914145 0.097378 -2.367006
v -2.397401 0.097378 -7.953934
v -7.984329 0.097378 -6.091624
v -6.122020 0.097378 6.944540
v 6.914145 0.097378 5.082231
v 5.051835 0.097378 -7.953934
v -0.535092 0.097378 -2.367006
v -0.535092 0.097378 5.082231
v -2.397401 0.097378 -0.504697
v 5.051835 1.611864 -0.501424
v 3.189526 0.097378 1.357612
v 3.189526 0.097378 5.082231
v 1.327217 0.097378 3.219921
v 5.051835 0.097378 3.219921
v -4.259710 0.097378 1.357612
v -4.259710 0.097378 5.082231
v -6.122020 0.097378 3.219921
v -2.397401 0.097378 3.219921
v -4.259710 0.097378 -6.091624
v -4.259710 0.097378 -2.367006
v -6.122020 0.097378 -4.229316
v -2.397401 0.097378 -4.229316
v 3.189526 2.410701 -6.091624
v 3.177279 6.052531 -2.256654
v 1.327217 2.102188 -4.229316
v 5.051835 4.019172 -4.179369
v 5.051835 3.471307 -2.162912
v 1.327217 0.477436 -2.367006
v 1.327217 0.477436 -6.091624
v -2.397401 0.097378 -2.367006
v -6.122020 0.097378 -2.367006
v -6.122020 0.097378 -6.091624
v -2.397401 0.097378 5.082231
v -6.122020 0.097378 5.082231
v -6.122020 0.097378 1.357612
v 5.051835 0.097378 5.082231
v 1.327217 0.097378 5.082231
v 1.327217 0.097378 1.357612
v 5.051835 0.097378 1.357612
v -2.397401 0.097378 1.357612
v -2.397401 0.097378 -6.091624
v 5.051835 0.571884 -6.091624
v -7.984329 0.097378 6.013385
v 5.982990 0.097378 6.944540
v 6.914145 0.097378 -7.022779
v -7.053174 0.097378 -7.953934
v -7.984329 0.097378 -1.435852
v -1.466247 0.097378 6.944540
v 6.914145 0.097378 0.426458
v 0.396062 0.097378 -7.953934
v -0.535092 0.097378 -7.022779
v -0.535092 0.097378 0.426458
v -7.053174 0.097378 -0.504697
v 0.396062 0.097378 -0.504697
v -7.984329 0.097378 2.288767
v 2.258372 0.097378 6.944540
v 6.914145 0.100035 -3.298161
v -3.328556 0.097378 -7.953934
v -7.984329 0.097378 -5.160470
v -5.190866 0.097378 6.944540
v 6.914145 0.097378 4.151076
v 4.120681 0.097378 -7.953934
v -0.535092 0.097378 -3.298161
v -0.535092 0.097378 4.151076
v -3.328556 0.097378 -0.504697
v 4.120681 2.792061 -0.462145
v 3.189526 0.553661 0.426458
v 3.189526 0.097378 4.151076
v 0.396062 0.097378 3.219921
v 4.120681 0.097378 3.219921
v -4.259710 0.097378 0.426458
v -4.259710 0.097378 4.151076
v -7.053174 0.097378 3.219921
v -3.328556 0.097378 3.219921
v -4.259710 0.097378 -7.022779
v -4.259710 0.097378 -3.298161
v -7.053174 0.097378 -4.229316
v -3.328556 0.097378 -4.229316
v 3.189526 0.350778 -7.022779
v 3.148017 6.756065 -3.251040
v 0.396062 0.350778 -4.229316
v 4.120681 6.526011 -4.217425
v -7.984329 0.097378 4.151076
v 4.120681 0.097378 6.944540
v 6.914145 0.117393 -5.160470
v -5.190866 0.097378 -7.953934
v -7.984329 0.097378 -3.298161
v -3.328556 0.097378 6.944540
v 6.914145 0.097378 2.288767
v 2.258372 0.097378 -7.953934
v -0.535092 0.097378 -5.160470
v -0.535092 0.097378 2.288767
v -5.190866 0.097378 -0.504697
v 2.258372 0.655502 -0.504697
v -7.984329 0.097378 0.426458
v 0.396062 0.097378 6.944540
v 6.914145 0.100663 -1.435852
v -1.466247 0.097378 -7.953934
v -7.984329 0.097378 -7.022779
v -7.053174 0.097378 6.944540
v 6.914145 0.097378 6.013385
v 5.982990 0.097378 -7.953934
v -0.535092 0.097378 -1.435852
v -0.535092 0.097378 6.013385
v -1.466247 0.097378 -0.504697
v 5.982990 0.553661 -0.504697
v 3.189526 0.097378 2.288767
v 3.189526 0.097378 6.013385
v 2.258372 0.097378 3.219921
v 5.982990 0.097378 3.219921
v -4.259710 0.097378 2.288767
v -4.259710 0.097378 6.013385
v -5.190866 0.097378 3.219921
v -1.466247 0.097378 3.219921
v -4.259710 0.097378 -5.160470
v -4.259710 0.097378 -1.435852
v -5.190866 0.097378 -4.229316
v -1.466247 0.097378 -4.229316
v 3.189526 5.083297 -5.142674
v 3.028766 5.698652 -1.255661
v 2.258372 6.411985 -4.226947
v 5.982990 0.893995 -4.229316
v 5.051835 1.561971 -3.271865
v 5.051835 2.505609 -1.399394
v 4.083034 6.294899 -2.128953
v 5.982990 0.794750 -2.366322
v 1.327217 1.524509 -3.298161
v 1.327217 0.160103 -1.435852
v 0.396062 0.156228 -2.367006
v 2.258372 1.491366 -2.367006
v 1.327217 0.156228 -7.022779
v 1.327217 1.515210 -5.160470
v 0.396062 0.156228 -6.091624
v 2.258372 1.682313 -6.091624
v -2.397401 0.097378 -3.298161
v -2.397401 0.097378 -1.435852
v -3.328556 0.097378 -2.367006
v -1.466247 0.097378 -2.367006
v -6.122020 0.097378 -3.298161
v -6.122020 0.097378 -1.435852
v -7.053174 0.097378 -2.367006
v -5.190866 0.097378 -2.367006
v -6.122020 0.097378 -7.022779
v -6.122020 0.097378 -5.160470
v -7.053174 0.097378 -6.091624
v -5.190866 0.097378 -6.091624
v -2.397401 0.097378 4.151076
v -2.397401 0.097378 6.013385
v -3.328556 0.097378 5.082231
v -1.466247 0.097378 5.082231
v -6.122020 0.097378 4.151076
v -6.122020 0.097378 6.013385
v -7.053174 0.097378 5.082231
v -5.190866 0.097378 5.082231
v -6.122020 0.097378 0.426458
v -6.122020 0.097378 2.288767
v -7.053174 0.097378 1.357612
v -5.190866 0.097378 1.357612
v 5.051835 0.097378 4.151076
v 5.051835 0.097378 6.013385
v 4.120681 0.097378 5.082231
v 5.982990 0.097378 5.082231
v 1.327217 0.097378 4.151076
v 1.327217 0.097378 6.013385
v 0.396062 0.097378 5.082231
v 2.258372 0.097378 5.082231
v 1.327217 0.097378 0.426458
v 1.327217 0.097378 2.288767
v 0.396062 0.097378 1.357612
v 2.258372 0.097378 1.357612
v 5.051835 0.553661 0.426458
v 5.051835 0.097378 2.288767
v 4.120681 0.100663 1.357612
v 5.982990 0.097378 1.357612
v -2.397401 0.097378 0.426458
v -2.397401 0.097378 2.288767
v -3.328556 0.097378 1.357612
v -1.466247 0.097378 1.357612
v -2.397401 0.097378 -7.022779
v -2.397401 0.097378 -5.160470
v -3.328556 0.097378 -6.091624
v -1.466247 0.097378 -6.091624
v 5.051835 0.156228 -7.022779
v 5.051835 1.517516 -5.160470
v 4.120681 1.696020 -6.091624
v 5.982990 0.172136 -6.091624
v 5.982990 0.483692 -5.160470
v 4.120681 5.127442 -5.130657
v 4.120681 0.285689 -7.022779
v -1.466247 0.097378 -5.160470
v -3.328556 0.097378 -5.160470
v -3.328556 0.097378 -7.022779
v -1.466247 0.097378 2.288767
v -3.328556 0.097378 2.288767
v -3.328556 0.097378 0.426458
v 5.982990 0.097378 2.288767
v 4.120681 0.097378 2.288767
v 4.120681 0.803720 0.426458
v 2.258372 0.097378 2.288767
v 0.396062 0.097378 2.288767
v 0.396062 0.097378 0.426458
v 2.258372 0.097378 6.013385
v 0.396062 0.097378 6.013385
v 0.396062 0.097378 4.151076
v 5.982990 0.097378 6.013385
v 4.120681 0.097378 6.013385
v 4.120681 0.097378 4.151076
v -5.190866 0.097378 2.288767
v -7.053174 0.097378 2.288767
v -7.053174 0.097378 0.426458
v -5.190866 0.097378 6.013385
v -7.053174 0.097378 6.013385
v -7.053174 0.097378 4.151076
v -1.466247 0.097378 6.013385
v -3.328556 0.097378 6.013385
v -3.328556 0.097378 4.151076
v -5.190866 0.097378 -5.160470
v -7.053174 0.097378 -5.160470
v -7.053174 0.097378 -7.022779
v -5.190866 0.097378 -1.435852
v -7.053174 0.097378 -1.435852
v -7.053174 0.097378 -3.298161
v -1.466247 0.097378 -1.435852
v -3.328556 0.097378 -1.435852
v -3.328556 0.097378 -3.298161
v 2.258372 5.466569 -5.160470
v 0.396062 0.285689 -5.160470
v 0.396062 0.097378 -7.022779
v 2.258372 1.451482 -1.435852
v 0.396062 0.097378 -1.435852
v 0.396062 0.285689 -3.298161
v 5.982990 0.827011 -1.435852
v 4.060828 6.977423 -1.294559
v 4.113747 3.947451 -3.087812
v 5.982990 0.500599 -3.298161
v 2.255642 4.102705 -3.242612
v 2.258372 0.285689 -7.022779
v -1.466247 0.097378 -3.298161
v -5.190866 0.097378 -3.298161
v -5.190866 0.097378 -7.022779
v -1.466247 0.097378 4.151076
v -5.190866 0.097378 4.151076
v -5.190866 0.097378 0.426458
v 5.982990 0.097378 4.151076
v 2.258372 0.097378 4.151076
v 2.258372 0.140142 0.426458
v 5.982990 0.140142 0.426458
v -1.466247 0.097378 0.426458
v -1.466247 0.097378 -7.022779
v 5.982990 0.097378 -7.022779
vn 0.0000 1.0000 0.0000
vn 0.4087 0.8341 0.3704
vn -0.3622 0.8155 0.4514
vn -0.0033 0.9802 -0.1982
vn 0.5921 0.7423 0.3136
vn 0.6148 0.7882 -0.0273
vn -0.7987 0.6003 0.0420
vn -0.0671 0.9958 0.0629
vn -0.3233 0.9373 -0.1303
vn 0.0035 1.0000 0.0035
vn 0.1350 0.9712 -0.1964
vn 0.3495 0.8885 -0.2973
vn 0.5896 0.7391 -0.3257
vn 0.0674 0.9635 -0.2590
vn -0.0032 0.8980 0.4400
vn 0.2096 0.7803 0.5892
vn -0.0631 0.9980 0.0000
vn -0.1982 0.9802 -0.0033
vn -0.7965 0.6032 -0.0422
vn -0.0629 0.9960 -0.0629
vn -0.7955 0.5736 0.1955
vn -0.5133 0.8563 0.0577
vn -0.1982 0.9802 0.0033
vn -0.3233 0.9373 0.1303
vn 0.5992 0.7682 0.2255
vn 0.5811 0.7761 -0.2450
vn 0.0000 0.9980 -0.0631
vn -0.1303 0.9373 -0.3233
vn -0.0459 0.9989 0.0000
vn 0.0000 0.9989 0.0459
vn 0.3704 0.8341 0.4087
vn 0.0458 0.9979 0.0458
vn 0.0629 0.9960 -0.0629
vn 0.3650 0.8502 -0.3795
vn 0.0798 0.9936 -0.0798
vn 0.0459 0.9989 0.0000
vn -0.0033 1.0000 0.0033
vn -0.0674 0.9635 -0.2590
vn 0.3947 0.9174 0.0505
vn 0.5994 0.8004 -0.0028
vn -0.3104 0.8998 0.3066
vn -0.6614 0.5009 -0.5583
vn 0.0800 0.9966 -0.0214
vn 0.3771 0.8783 -0.2939
vn 0.3659 0.9301 -0.0338
vn 0.0033 0.9802 -0.1982
vn 0.1259 0.9059 -0.4044
vn -0.0033 1.0000 -0.0033
vn -0.0035 1.0000 0.0035
vn -0.2096 0.7803 0.5892
vn 0.0032 0.8980 0.4400
vn -0.1964 0.9712 -0.1350
vn -0.2590 0.9635 -0.0674
vn -0.3100 0.8988 -0.3100
vn -0.7255 0.5231 0.4472
vn -0.0629 0.9960 0.0629
vn -0.0671 0.9955 0.0671
vn -0.2590 0.9635 0.0674
vn -0.1964 0.9712 0.1350
vn -0.6624 0.4979 0.5598
vn 0.4400 0.8980 0.0032
vn 0.3952 0.9186 0.0026
vn -0.1350 0.9712 -0.1964
vn -0.4644 0.7748 0.4288
vn -0.0458 0.9979 0.0458
vn -0.3704 0.8341 0.4087
vn 0.3761 0.8468 0.3761
vn 0.0629 0.9948 -0.0799
vn 0.7197 0.2770 0.6367
vn -0.9840 0.1782 0.0076
vn -0.1837 0.2349 -0.9545
vn 0.4857 0.3567 0.7981
vn 0.7122 0.1893 -0.6759
vn 0.6145 0.5535 -0.5621
vn 0.7617 0.2366 -0.6032
vn -0.0037 0.3346 -0.9424
vn 0.8331 0.3024 -0.4631
vn 0.3014 0.3927 -0.8688
vn 0.5538 0.4588 -0.6948
vn -0.1546 0.5755 0.8031
vn -0.6538 0.5053 -0.5632
vn -0.9633 0.2270 -0.1431
vn -0.6990 0.5436 0.4647
vn 0.7543 0.4072 0.5150
vn 0.7938 0.4310 0.4290
vn -0.2231 0.1778 0.9584
vn 0.7716 0.2204 0.5967
vn 0.7820 0.3130 -0.5389
vn -0.9226 0.3278 0.2034
vn -0.5862 0.5384 0.6054
vn -0.8598 0.1615 0.4843
vn -0.0387 0.5543 -0.8314
vn 0.6010 0.5270 0.6010
vn -0.5995 0.4662 0.6505
vn 0.7290 0.2371 0.6421
vn -0.8477 0.4507 0.2796
vn -0.9772 0.1987 -0.0747
vn 0.1539 0.3306 -0.9311
vn 0.1743 0.6492 0.7404
vn 0.6463 0.5354 -0.5437
vn 0.7127 0.6419 -0.2829
vn 0.2027 0.2641 -0.9430
vn 0.8109 0.2137 -0.5448
vn 0.0385 0.5506 -0.8339
vn -0.4128 0.3716 0.8316
vn -0.7120 0.1678 -0.6819
vn -0.9558 0.2066 -0.2092
vn -0.8467 0.4501 -0.2838
vn -0.7362 0.6761 0.0290
vn -0.7252 0.1026 0.6809
vn 0.9441 0.3293 -0.0114
vn 0.7373 0.6482 0.1903
vn 0.6803 0.5195 0.5171
vn 0.7422 0.3366 -0.5795
vn 0.7277 0.6318 0.2669
vn 0.7333 0.6484 -0.2047
vn -0.8771 0.1892 0.4416
vn -0.6838 0.2313 0.6920
vn -0.5831 0.4507 -0.6759
vn -0.3067 0.3921 -0.8673
vn -0.7576 0.2567 0.6001
vn 0.9184 0.3179 -0.2356
vn 0.3448 0.3388 -0.8754
vn 0.2898 0.6725 -0.6810
vn -0.7721 0.6264 0.1069
vn 0.7237 0.1446 0.6748
vn 0.6247 0.6140 0.4826
vn 0.9217 0.3289 0.2056
vn 0.7417 0.2619 -0.6175
vn -0.6860 0.5981 0.4145
vn 0.9447 0.2033 0.2572
vn -0.0151 0.5467 -0.8372
vn -0.3730 0.3349 -0.8653
vn -0.1164 0.7673 -0.6307
vn -0.1973 0.1885 0.9620
vn 0.7090 0.2814 0.6466
vn 0.0292 0.3783 -0.9252
vn -0.9184 0.3097 0.2461
usemtl ground
s off
f 84//1 141//1 289//1
f 90//1 137//1 288//1
f 91//1 144//1 287//1
f 286//2 7//2 145//2
f 106//3 133//3 285//3
f 107//1 148//1 284//1
f 100//1 149//1 283//1
f 110//1 132//1 282//1
f 111//1 152//1 281//1
f 103//1 153//1 280//1
f 114//1 125//1 279//1
f 115//1 156//1 278//1
f 102//1 157//1 277//1
f 276//4 17//4 129//4
f 274//5 12//5 161//5
f 136//6 165//6 271//6
f 166//7 120//7 270//7
f 167//8 168//8 269//8
f 267//1 33//1 89//1
f 266//9 68//9 172//9
f 174//1 117//1 264//1
f 175//1 176//1 263//1
f 142//1 177//1 262//1
f 178//1 116//1 261//1
f 179//1 180//1 260//1
f 155//1 181//1 259//1
f 182//1 85//1 258//1
f 183//1 184//1 257//1
f 154//1 185//1 256//1
f 186//1 113//1 255//1
f 187//1 188//1 254//1
f 143//1 189//1 253//1
f 190//1 112//1 252//1
f 191//1 192//1 251//1
f 151//1 193//1 250//1
f 194//1 92//1 249//1
f 195//1 196//1 248//1
f 150//1 197//1 247//1
f 198//1 109//1 246//1
f 199//1 200//1 245//1
f 140//1 201//1 244//1
f 202//1 108//1 243//1
f 203//1 204//1 242//1
f 147//1 205//1 241//1
f 206//1 93//1 240//1
f 207//1 208//1 239//1
f 146//1 209//1 238//1
f 236//10 78//10 212//10
f 128//1 213//1 235//1
f 214//1 104//1 234//1
f 215//1 216//1 233//1
f 131//1 217//1 232//1
f 218//1 97//1 231//1
f 219//1 220//1 230//1
f 130//1 221//1 229//1
f 222//11 101//11 228//11
f 124//12 225//12 226//12
f 12//13 226//13 161//13
f 228//14 17//14 118//14
f 229//1 80//1 219//1
f 157//1 219//1 61//1
f 157//1 130//1 229//1
f 230//1 58//1 154//1
f 117//1 154//1 24//1
f 61//1 230//1 117//1
f 231//1 13//1 114//1
f 220//1 114//1 58//1
f 80//1 231//1 220//1
f 232//1 79//1 215//1
f 153//1 215//1 57//1
f 19//1 232//1 153//1
f 233//1 54//1 150//1
f 113//1 150//1 23//1
f 57//1 233//1 113//1
f 234//1 20//1 110//1
f 216//1 110//1 54//1
f 79//1 234//1 216//1
f 235//1 78//1 211//1
f 149//1 211//1 53//1
f 16//1 235//1 149//1
f 236//1 50//1 146//1
f 109//1 146//1 22//1
f 53//1 236//1 109//1
f 212//15 106//15 50//15
f 212//16 210//16 237//16
f 238//1 77//1 207//1
f 148//1 207//1 52//1
f 22//1 238//1 148//1
f 239//1 35//1 131//1
f 108//1 131//1 19//1
f 52//1 239//1 108//1
f 240//1 9//1 91//1
f 208//1 91//1 35//1
f 77//1 240//1 208//1
f 241//1 76//1 203//1
f 95//1 203//1 39//1
f 11//1 241//1 95//1
f 242//1 47//1 143//1
f 135//1 143//1 6//1
f 39//1 242//1 135//1
f 243//1 19//1 103//1
f 204//1 103//1 47//1
f 76//1 243//1 204//1
f 244//1 75//1 199//1
f 83//1 199//1 27//1
f 2//1 244//1 83//1
f 245//1 51//1 147//1
f 123//1 147//1 11//1
f 27//1 245//1 123//1
f 246//1 22//1 107//1
f 200//1 107//1 51//1
f 75//1 246//1 200//1
f 247//1 74//1 195//1
f 152//1 195//1 56//1
f 23//1 247//1 152//1
f 248//1 38//1 94//1
f 112//1 94//1 10//1
f 56//1 248//1 112//1
f 249//1 5//1 134//1
f 196//1 134//1 38//1
f 74//1 249//1 196//1
f 250//1 73//1 191//1
f 99//1 191//1 43//1
f 15//1 250//1 99//1
f 251//1 26//1 82//1
f 139//1 82//1 1//1
f 43//1 251//1 139//1
f 252//1 10//1 122//1
f 192//1 122//1 26//1
f 73//1 252//1 192//1
f 253//1 72//1 187//1
f 87//1 187//1 31//1
f 6//1 253//1 87//1
f 254//1 55//1 151//1
f 127//1 151//1 15//1
f 31//1 254//1 127//1
f 255//1 23//1 111//1
f 188//1 111//1 55//1
f 72//1 255//1 188//1
f 256//1 71//1 183//1
f 156//1 183//1 60//1
f 24//1 256//1 156//1
f 257//1 42//1 98//1
f 116//1 98//1 14//1
f 60//1 257//1 116//1
f 258//1 3//1 138//1
f 184//1 138//1 42//1
f 71//1 258//1 184//1
f 259//1 70//1 179//1
f 132//1 179//1 36//1
f 20//1 259//1 132//1
f 260//1 30//1 86//1
f 92//1 86//1 5//1
f 36//1 260//1 92//1
f 261//1 14//1 126//1
f 180//1 126//1 30//1
f 70//1 261//1 180//1
f 262//1 69//1 175//1
f 144//1 175//1 48//1
f 9//1 262//1 144//1
f 263//1 59//1 155//1
f 104//1 155//1 20//1
f 48//1 263//1 104//1
f 264//1 24//1 115//1
f 176//1 115//1 59//1
f 69//1 264//1 176//1
f 130//17 172//17 34//17
f 18//18 266//18 130//18
f 120//19 171//19 266//19
f 267//1 8//1 90//1
f 34//1 267//1 90//1
f 172//20 170//20 267//20
f 268//21 67//21 167//21
f 133//22 167//22 37//22
f 269//1 46//1 142//1
f 93//1 142//1 9//1
f 37//1 269//1 93//1
f 270//23 18//23 102//23
f 168//17 102//17 46//17
f 67//24 270//24 168//24
f 145//25 136//25 271//25
f 40//26 274//26 165//26
f 170//27 129//27 33//27
f 68//28 276//28 170//28
f 277//1 61//1 174//1
f 177//1 174//1 69//1
f 46//1 277//1 177//1
f 278//1 60//1 178//1
f 181//1 178//1 70//1
f 59//1 278//1 181//1
f 279//1 29//1 182//1
f 185//1 182//1 71//1
f 58//1 279//1 185//1
f 280//1 57//1 186//1
f 189//1 186//1 72//1
f 47//1 280//1 189//1
f 281//1 56//1 190//1
f 193//1 190//1 73//1
f 55//1 281//1 193//1
f 282//1 36//1 194//1
f 197//1 194//1 74//1
f 54//1 282//1 197//1
f 283//1 53//1 198//1
f 201//1 198//1 75//1
f 44//1 283//1 201//1
f 284//1 52//1 202//1
f 205//1 202//1 76//1
f 51//1 284//1 205//1
f 285//29 37//29 206//29
f 209//1 206//1 77//1
f 50//30 285//30 209//30
f 78//31 286//31 210//31
f 213//32 88//32 286//32
f 287//1 48//1 214//1
f 217//1 214//1 79//1
f 35//1 287//1 217//1
f 288//1 41//1 218//1
f 221//1 218//1 80//1
f 34//1 288//1 221//1
f 289//33 45//33 222//33
f 225//34 222//34 81//34
f 28//35 289//35 225//35
f 84//1 4//1 141//1
f 90//1 8//1 137//1
f 91//1 9//1 144//1
f 286//36 88//36 7//36
f 107//1 22//1 148//1
f 100//1 16//1 149//1
f 110//1 20//1 132//1
f 111//1 23//1 152//1
f 103//1 19//1 153//1
f 114//1 13//1 125//1
f 115//1 24//1 156//1
f 102//37 18//37 157//37
f 276//38 118//38 17//38
f 274//39 96//39 12//39
f 136//40 40//40 165//40
f 167//41 67//41 168//41
f 267//20 170//20 33//20
f 266//42 171//42 68//42
f 174//1 61//1 117//1
f 175//1 69//1 176//1
f 142//1 46//1 177//1
f 178//1 60//1 116//1
f 179//1 70//1 180//1
f 155//1 59//1 181//1
f 182//1 29//1 85//1
f 183//1 71//1 184//1
f 154//1 58//1 185//1
f 186//1 57//1 113//1
f 187//1 72//1 188//1
f 143//1 47//1 189//1
f 190//1 56//1 112//1
f 191//1 73//1 192//1
f 151//1 55//1 193//1
f 194//1 36//1 92//1
f 195//1 74//1 196//1
f 150//1 54//1 197//1
f 198//1 53//1 109//1
f 199//1 75//1 200//1
f 140//1 44//1 201//1
f 202//1 52//1 108//1
f 203//1 76//1 204//1
f 147//1 51//1 205//1
f 206//1 37//1 93//1
f 207//1 77//1 208//1
f 146//1 50//1 209//1
f 236//1 211//1 78//1
f 128//1 32//1 213//1
f 214//1 48//1 104//1
f 215//1 79//1 216//1
f 131//1 35//1 217//1
f 218//1 41//1 97//1
f 219//1 80//1 220//1
f 130//1 34//1 221//1
f 222//27 45//27 101//27
f 124//43 28//43 225//43
f 226//44 225//44 81//44
f 12//45 124//45 226//45
f 228//46 101//46 17//46
f 81//47 222//47 228//47
f 229//1 221//1 80//1
f 157//1 229//1 219//1
f 157//48 18//48 130//48
f 230//1 220//1 58//1
f 117//1 230//1 154//1
f 61//1 219//1 230//1
f 231//1 97//1 13//1
f 220//1 231//1 114//1
f 80//1 218//1 231//1
f 232//1 217//1 79//1
f 153//1 232//1 215//1
f 19//1 131//1 232//1
f 233//1 216//1 54//1
f 113//1 233//1 150//1
f 57//1 215//1 233//1
f 234//1 104//1 20//1
f 216//1 234//1 110//1
f 79//1 214//1 234//1
f 235//1 213//1 78//1
f 149//1 235//1 211//1
f 16//1 128//1 235//1
f 236//49 212//49 50//49
f 109//1 236//1 146//1
f 53//1 211//1 236//1
f 212//50 237//50 106//50
f 212//51 78//51 210//51
f 238//1 209//1 77//1
f 148//1 238//1 207//1
f 22//1 146//1 238//1
f 239//1 208//1 35//1
f 108//1 239//1 131//1
f 52//1 207//1 239//1
f 240//1 93//1 9//1
f 208//1 240//1 91//1
f 77//1 206//1 240//1
f 241//1 205//1 76//1
f 95//1 241//1 203//1
f 11//1 147//1 241//1
f 242//1 204//1 47//1
f 135//1 242//1 143//1
f 39//1 203//1 242//1
f 243//1 108//1 19//1
f 204//1 243//1 103//1
f 76//1 202//1 243//1
f 244//1 201//1 75//1
f 83//1 244//1 199//1
f 2//1 140//1 244//1
f 245//1 200//1 51//1
f 123//1 245//1 147//1
f 27//1 199//1 245//1
f 246//1 109//1 22//1
f 200//1 246//1 107//1
f 75//1 198//1 246//1
f 247//1 197//1 74//1
f 152//1 247//1 195//1
f 23//1 150//1 247//1
f 248//1 196//1 38//1
f 112//1 248//1 94//1
f 56//1 195//1 248//1
f 249//1 92//1 5//1
f 196//1 249//1 134//1
f 74//1 194//1 249//1
f 250//1 193//1 73//1
f 99//1 250//1 191//1
f 15//1 151//1 250//1
f 251//1 192//1 26//1
f 139//1 251//1 82//1
f 43//1 191//1 251//1
f 252//1 112//1 10//1
f 192//1 252//1 122//1
f 73//1 190//1 252//1
f 253//1 189//1 72//1
f 87//1 253//1 187//1
f 6//1 143//1 253//1
f 254//1 188//1 55//1
f 127//1 254//1 151//1
f 31//1 187//1 254//1
f 255//1 113//1 23//1
f 188//1 255//1 111//1
f 72//1 186//1 255//1
f 256//1 185//1 71//1
f 156//1 256//1 183//1
f 24//1 154//1 256//1
f 257//1 184//1 42//1
f 116//1 257//1 98//1
f 60//1 183//1 257//1
f 258//1 85//1 3//1
f 184//1 258//1 138//1
f 71//1 182//1 258//1
f 259//1 181//1 70//1
f 132//1 259//1 179//1
f 20//1 155//1 259//1
f 260//1 180//1 30//1
f 92//1 260//1 86//1
f 36//1 179//1 260//1
f 261//1 116//1 14//1
f 180//1 261//1 126//1
f 70//1 178//1 261//1
f 262//1 177//1 69//1
f 144//1 262//1 175//1
f 9//1 142//1 262//1
f 263//1 176//1 59//1
f 104//1 263//1 155//1
f 48//1 175//1 263//1
f 264//1 117//1 24//1
f 176//1 264//1 115//1
f 69//1 174//1 264//1
f 130//52 266//52 172//52
f 18//53 120//53 266//53
f 267//1 89//1 8//1
f 34//20 172//20 267//20
f 172//54 68//54 170//54
f 133//55 268//55 167//55
f 269//56 168//56 46//56
f 93//1 269//1 142//1
f 37//57 167//57 269//57
f 270//58 120//58 18//58
f 168//59 270//59 102//59
f 67//60 166//60 270//60
f 145//61 7//61 136//61
f 40//62 96//62 274//62
f 170//63 276//63 129//63
f 277//1 157//1 61//1
f 177//1 277//1 174//1
f 46//1 102//1 277//1
f 278//1 156//1 60//1
f 181//1 278//1 178//1
f 59//1 115//1 278//1
f 279//1 125//1 29//1
f 185//1 279//1 182//1
f 58//1 114//1 279//1
f 280//1 153//1 57//1
f 189//1 280//1 186//1
f 47//1 103//1 280//1
f 281//1 152//1 56//1
f 193//1 281//1 190//1
f 55//1 111//1 281//1
f 282//1 132//1 36//1
f 197//1 282//1 194//1
f 54//1 110//1 282//1
f 283//1 149//1 53//1
f 201//1 283//1 198//1
f 44//1 100//1 283//1
f 284//1 148//1 52//1
f 205//1 284//1 202//1
f 51//1 107//1 284//1
f 285//64 133//64 37//64
f 209//65 285//65 206//65
f 50//66 106//66 285//66
f 210//67 286//67 145//67
f 78//30 213//30 286//30
f 213//1 32//1 88//1
f 287//1 144//1 48//1
f 217//1 287//1 214//1
f 35//1 91//1 287//1
f 288//1 137//1 41//1
f 221//1 288//1 218//1
f 34//1 90//1 288//1
f 289//1 141//1 45//1
f 225//68 289//68 222//68
f 28//1 84//1 289//1
usemtl mountain
f 273//69 65//69 121//69
f 159//70 169//70 268//70
f 265//71 62//71 173//71
f 237//72 49//72 105//72
f 223//73 224//73 227//73
f 226//74 81//74 223//74
f 161//75 223//75 65//75
f 227//76 62//76 158//76
f 65//77 227//77 121//77
f 224//78 118//78 62//78
f 81//79 228//79 224//79
f 237//80 21//80 106//80
f 171//81 173//81 68//81
f 64//82 265//82 171//82
f 21//83 268//83 133//83
f 271//84 66//84 163//84
f 49//85 271//85 163//85
f 105//86 159//86 21//86
f 162//87 161//87 65//87
f 165//88 162//88 66//88
f 275//89 64//89 166//89
f 169//90 166//90 67//90
f 63//91 275//91 169//91
f 173//92 118//92 276//92
f 210//93 145//93 49//93
f 106//94 21//94 133//94
f 273//95 162//95 65//95
f 166//96 64//96 120//96
f 159//97 63//97 169//97
f 265//98 158//98 62//98
f 237//99 210//99 49//99
f 223//100 81//100 224//100
f 161//101 226//101 223//101
f 227//102 224//102 62//102
f 65//103 223//103 227//103
f 224//104 228//104 118//104
f 237//105 105//105 21//105
f 171//106 265//106 173//106
f 64//107 160//107 265//107
f 120//108 64//108 171//108
f 268//109 169//109 67//109
f 21//110 159//110 268//110
f 271//111 165//111 66//111
f 49//112 145//112 271//112
f 105//113 49//113 163//113
f 66//114 162//114 273//114
f 162//115 274//115 161//115
f 165//116 274//116 162//116
f 275//117 160//117 64//117
f 169//118 275//118 166//118
f 68//119 173//119 276//119
f 173//120 62//120 118//120
usemtl snow
f 119//121 160//121 275//121
f 272//122 66//122 164//122
f 121//123 158//123 25//123
f 160//124 158//124 265//124
f 272//125 63//125 159//125
f 105//126 163//126 272//126
f 119//127 121//127 25//127
f 63//128 273//128 119//128
f 66//129 273//129 164//129
f 119//130 25//130 160//130
f 272//131 163//131 66//131
f 121//132 227//132 158//132
f 160//133 25//133 158//133
f 272//134 164//134 63//134
f 105//135 272//135 159//135
f 119//136 273//136 121//136
f 63//137 164//137 273//137
f 63//138 119//138 275//138
